<?xml version="1.0" standalone="no"?>
<!DOCTYPE svg PUBLIC "-//W3C//DTD SVG 20010904//EN"
 "http://www.w3.org/TR/2001/REC-SVG-20010904/DTD/svg10.dtd">
<svg version="1.0" xmlns="http://www.w3.org/2000/svg"
 width="400.000000pt" height="215.000000pt" viewBox="0 0 400.000000 215.000000"
 preserveAspectRatio="xMidYMid meet">

<g transform="translate(0.000000,215.000000) scale(0.100000,-0.100000)"
fill="#000000" stroke="none">
<path d="M1398 1633 l-27 -26 66 -51 c36 -28 80 -62 98 -76 18 -14 57 -44 86
-67 282 -219 259 -204 283 -185 12 9 90 75 173 146 l151 129 -21 33 -21 32
-56 -39 c-30 -21 -80 -57 -110 -79 -117 -85 -142 -100 -153 -93 -7 3 -97 66
-202 138 -268 186 -236 169 -267 138z"/>
<path d="M955 900 l-241 -481 64 3 65 3 26 50 c14 28 93 189 176 358 l150 309
92 -187 c51 -103 93 -189 93 -191 0 -3 -56 -4 -125 -2 l-125 3 -9 -25 c-5 -14
-12 -33 -16 -43 -7 -17 2 -18 156 -16 l164 1 65 -128 65 -129 66 -3 66 -3
-241 480 c-132 265 -243 481 -246 481 -3 0 -113 -216 -245 -480z"/>
<path d="M2990 1124 c0 -126 0 -126 -22 -120 -77 22 -176 28 -246 17 -186 -32
-260 -126 -250 -315 11 -210 128 -296 383 -283 61 3 143 11 183 18 l72 12 0
398 0 399 -60 0 -60 0 0 -126z m-32 -205 l32 -11 -2 -191 -3 -191 -30 -8 c-55
-17 -217 -14 -250 4 -75 40 -115 113 -115 210 1 108 51 180 139 199 47 10 187
3 229 -12z"/>
<path d="M3550 889 c0 -405 1 -413 68 -445 24 -12 67 -20 119 -22 l83 -4 -2
40 -1 40 -55 4 c-92 8 -92 7 -92 289 l0 239 76 0 75 0 -3 53 c-2 32 -8 52 -15
53 -7 1 -46 2 -87 3 l-74 1 -6 38 c-13 69 -15 72 -52 72 l-34 0 0 -361z"/>
<path d="M1750 807 l0 -223 28 -55 c21 -43 36 -59 73 -77 91 -45 250 -37 361
19 51 26 56 24 64 -16 6 -34 8 -35 50 -35 l44 0 0 305 0 305 -65 0 -65 0 0
-224 0 -225 -29 -21 c-80 -56 -206 -72 -272 -34 -63 36 -69 63 -69 297 l0 207
-60 0 -60 0 0 -223z"/>
<path d="M3280 725 l0 -305 60 0 60 0 0 305 0 305 -60 0 -60 0 0 -305z"/>
</g>
</svg>
